<?xml version="1.0" encoding="UTF-8"?>
<svg width="700pt" height="700pt" version="1.1" viewBox="0 0 700 700" xmlns="http://www.w3.org/2000/svg" xmlns:xlink="http://www.w3.org/1999/xlink">
 <defs>
  <symbol id="v" overflow="visible">
   <path d="m23.922-1.4375c-1.2305 0.64844-2.5156 1.1328-3.8594 1.4531-1.3359 0.32031-2.7266 0.48438-4.1719 0.48438-4.3359 0-7.7734-1.207-10.312-3.625-2.5312-2.4258-3.7969-5.7188-3.7969-9.875s1.2656-7.4453 3.7969-9.875c2.5391-2.4258 5.9766-3.6406 10.312-3.6406 1.4453 0 2.8359 0.16797 4.1719 0.5 1.3438 0.32422 2.6289 0.80469 3.8594 1.4375v5.3906c-1.2422-0.84375-2.4648-1.4609-3.6719-1.8594-1.2109-0.39453-2.4844-0.59375-3.8281-0.59375-2.3867 0-4.2656 0.76562-5.6406 2.2969s-2.0625 3.6484-2.0625 6.3438c0 2.6875 0.6875 4.8047 2.0625 6.3438 1.375 1.5312 3.2539 2.2969 5.6406 2.2969 1.3438 0 2.6172-0.19531 3.8281-0.59375 1.207-0.39453 2.4297-1.0156 3.6719-1.8594z"/>
  </symbol>
  <symbol id="b" overflow="visible">
   <path d="m17.516-14.219c-0.55469-0.25-1.1016-0.4375-1.6406-0.5625-0.54297-0.125-1.0859-0.1875-1.625-0.1875-1.6055 0-2.8398 0.51562-3.7031 1.5469-0.86719 1.0312-1.2969 2.5078-1.2969 4.4219v9h-6.25v-19.531h6.25v3.2031c0.80078-1.2812 1.7188-2.2109 2.75-2.7969 1.0391-0.58203 2.2891-0.875 3.75-0.875 0.20703 0 0.42969 0.011719 0.67188 0.03125 0.25 0.011719 0.60938 0.046875 1.0781 0.10938z"/>
  </symbol>
  <symbol id="a" overflow="visible">
   <path d="m22.5-9.8125v1.7656h-14.594c0.14453 1.4688 0.67188 2.5742 1.5781 3.3125 0.90625 0.73047 2.1758 1.0938 3.8125 1.0938 1.3125 0 2.6562-0.19141 4.0312-0.57812 1.375-0.39453 2.7891-0.98828 4.25-1.7812v4.8125c-1.4805 0.5625-2.9609 0.98438-4.4375 1.2656-1.4805 0.28125-2.9531 0.42188-4.4219 0.42188-3.543 0-6.293-0.89453-8.25-2.6875-1.9609-1.8008-2.9375-4.3203-2.9375-7.5625 0-3.1875 0.96094-5.6914 2.8906-7.5156 1.9258-1.8203 4.5703-2.7344 7.9375-2.7344 3.0703 0 5.5312 0.92969 7.375 2.7812 1.8438 1.8438 2.7656 4.3125 2.7656 7.4062zm-6.4219-2.0781c0-1.1875-0.35156-2.1445-1.0469-2.875-0.6875-0.72656-1.5898-1.0938-2.7031-1.0938-1.2109 0-2.1953 0.34375-2.9531 1.0312-0.75 0.67969-1.2188 1.6562-1.4062 2.9375z"/>
  </symbol>
  <symbol id="h" overflow="visible">
   <path d="m11.75-8.7969c-1.3047 0-2.2812 0.22656-2.9375 0.67188-0.65625 0.4375-0.98438 1.0898-0.98438 1.9531 0 0.79297 0.26562 1.4141 0.79688 1.8594 0.53125 0.44922 1.2656 0.67188 2.2031 0.67188 1.1758 0 2.1641-0.42188 2.9688-1.2656 0.80078-0.84375 1.2031-1.8984 1.2031-3.1719v-0.71875zm9.5469-2.3438v11.141h-6.2969v-2.8906c-0.83594 1.1875-1.7773 2.0547-2.8281 2.5938-1.043 0.53125-2.3125 0.79688-3.8125 0.79688-2.0312 0-3.6797-0.58594-4.9375-1.7656-1.2617-1.1758-1.8906-2.707-1.8906-4.5938 0-2.2891 0.78516-3.9688 2.3594-5.0312 1.582-1.0703 4.0547-1.6094 7.4219-1.6094h3.6875v-0.5c0-0.97656-0.39062-1.6953-1.1719-2.1562-0.78125-0.46875-1.9961-0.70312-3.6406-0.70312-1.3359 0-2.5781 0.13672-3.7344 0.40625-1.1562 0.27344-2.2266 0.67188-3.2031 1.2031v-4.7656c1.332-0.32031 2.6719-0.56641 4.0156-0.73438 1.3516-0.16406 2.7031-0.25 4.0469-0.25 3.5312 0 6.0781 0.69531 7.6406 2.0781 1.5625 1.3867 2.3438 3.6484 2.3438 6.7812z"/>
  </symbol>
  <symbol id="d" overflow="visible">
   <path d="m9.8125-25.078v5.5469h6.4375v4.4688h-6.4375v8.2812c0 0.90625 0.17969 1.5234 0.54688 1.8438 0.36328 0.3125 1.0781 0.46875 2.1406 0.46875h3.2188v4.4688h-5.3594c-2.4688 0-4.2188-0.51562-5.25-1.5469-1.0234-1.0312-1.5312-2.7734-1.5312-5.2344v-8.2812h-3.1094v-4.4688h3.1094v-5.5469z"/>
  </symbol>
  <symbol id="g" overflow="visible">
   <path d="m16.297-16.672v-10.469h6.2656v27.141h-6.2656v-2.8281c-0.86719 1.1562-1.8203 2-2.8594 2.5312-1.0312 0.53125-2.2266 0.79688-3.5781 0.79688-2.4062 0-4.3867-0.95312-5.9375-2.8594-1.543-1.9141-2.3125-4.3789-2.3125-7.3906 0-3.0078 0.76953-5.4688 2.3125-7.375 1.5508-1.9141 3.5312-2.875 5.9375-2.875 1.3438 0 2.5352 0.27344 3.5781 0.8125 1.0391 0.54297 1.9922 1.3828 2.8594 2.5156zm-4.125 12.641c1.332 0 2.3516-0.48438 3.0625-1.4531 0.70703-0.97656 1.0625-2.3984 1.0625-4.2656 0-1.8633-0.35547-3.2812-1.0625-4.25-0.71094-0.97656-1.7305-1.4688-3.0625-1.4688-1.3242 0-2.3398 0.49219-3.0469 1.4688-0.69922 0.96875-1.0469 2.3867-1.0469 4.25 0 1.8672 0.34766 3.2891 1.0469 4.2656 0.70703 0.96875 1.7227 1.4531 3.0469 1.4531z"/>
  </symbol>
  <symbol id="f" overflow="visible">
   <path d="m13.391-4.0312c1.3438 0 2.3633-0.48438 3.0625-1.4531 0.70703-0.97656 1.0625-2.3984 1.0625-4.2656 0-1.8633-0.35547-3.2812-1.0625-4.25-0.69922-0.97656-1.7188-1.4688-3.0625-1.4688-1.3359 0-2.3594 0.49609-3.0781 1.4844-0.71094 0.98047-1.0625 2.3906-1.0625 4.2344 0 1.8555 0.35156 3.2734 1.0625 4.25 0.71875 0.98047 1.7422 1.4688 3.0781 1.4688zm-4.1406-12.641c0.85156-1.1328 1.8008-1.9727 2.8438-2.5156 1.0508-0.53906 2.2578-0.8125 3.625-0.8125 2.4062 0 4.3789 0.96094 5.9219 2.875 1.5508 1.9062 2.3281 4.3672 2.3281 7.375 0 3.0117-0.77734 5.4766-2.3281 7.3906-1.543 1.9062-3.5156 2.8594-5.9219 2.8594-1.3672 0-2.5742-0.26562-3.625-0.79688-1.043-0.53906-1.9922-1.3828-2.8438-2.5312v2.8281h-6.25v-27.141h6.25z"/>
  </symbol>
  <symbol id="k" overflow="visible">
   <path d="m0.4375-19.531h6.25l5.2344 13.25 4.4688-13.25h6.25l-8.2188 21.375c-0.82422 2.1758-1.7891 3.6953-2.8906 4.5625-1.0938 0.86328-2.543 1.2969-4.3438 1.2969h-3.6094v-4.0938h1.9531c1.0508 0 1.8164-0.17188 2.2969-0.51562 0.48828-0.33594 0.86719-0.93359 1.1406-1.7969l0.17188-0.54688z"/>
  </symbol>
  <symbol id="j" overflow="visible">
   <path d="m13.703-15.953c1.0625 0 1.8633-0.23438 2.4062-0.70312 0.55078-0.46875 0.82812-1.1562 0.82812-2.0625 0-0.89453-0.27734-1.5781-0.82812-2.0469-0.54297-0.46875-1.3438-0.70312-2.4062-0.70312h-3.7031v5.5156zm0.23438 11.391c1.3438 0 2.3516-0.28516 3.0312-0.85938 0.6875-0.57031 1.0312-1.4297 1.0312-2.5781 0-1.1328-0.33984-1.9844-1.0156-2.5469-0.67969-0.5625-1.6953-0.84375-3.0469-0.84375h-3.9375v6.8281zm6.2344-9.375c1.4453 0.41797 2.5664 1.1953 3.3594 2.3281 0.78906 1.125 1.1875 2.5078 1.1875 4.1406 0 2.5117-0.85156 4.3867-2.5469 5.625-1.6992 1.2305-4.2812 1.8438-7.75 1.8438h-11.141v-26.047h10.078c3.6133 0 6.2344 0.54688 7.8594 1.6406s2.4375 2.8438 2.4375 5.25c0 1.2734-0.29688 2.3555-0.89062 3.25-0.59375 0.88672-1.4609 1.543-2.5938 1.9688z"/>
  </symbol>
  <symbol id="c" overflow="visible">
   <path d="m22.641-11.891v11.891h-6.2812v-9.1094c0-1.6875-0.042969-2.8477-0.125-3.4844-0.074219-0.63281-0.19922-1.1016-0.375-1.4062-0.25-0.40625-0.58594-0.72266-1-0.95312-0.41797-0.22656-0.89844-0.34375-1.4375-0.34375-1.3047 0-2.3242 0.50781-3.0625 1.5156-0.74219 1-1.1094 2.3906-1.1094 4.1719v9.6094h-6.25v-19.531h6.25v2.8594c0.9375-1.1328 1.9297-1.9727 2.9844-2.5156 1.0625-0.53906 2.2344-0.8125 3.5156-0.8125 2.25 0 3.957 0.69531 5.125 2.0781 1.1758 1.375 1.7656 3.3867 1.7656 6.0312z"/>
  </symbol>
  <symbol id="u" overflow="visible">
   <path d="m3.2812-26.047h6.7188v20.969h11.781v5.0781h-18.5z"/>
  </symbol>
  <symbol id="i" overflow="visible">
   <path d="m3-27.141h6.25v14.781l7.1719-7.1719h7.2656l-9.5469 8.9688 10.297 10.562h-7.5781l-7.6094-8.1406v8.1406h-6.25z"/>
  </symbol>
  <symbol id="t" overflow="visible">
   <path d="m3-19.531h6.25v19.531h-6.25zm0-7.6094h6.25v5.0938h-6.25z"/>
  </symbol>
  <symbol id="s" overflow="visible">
   <path d="m15.859-27.141v4.0938h-3.4531c-0.88672 0-1.5078 0.16406-1.8594 0.48438-0.34375 0.32422-0.51562 0.88281-0.51562 1.6719v1.3594h5.3281v4.4688h-5.3281v15.062h-6.25v-15.062h-3.0938v-4.4688h3.0938v-1.3594c0-2.125 0.59375-3.6953 1.7812-4.7188 1.1875-1.0195 3.0234-1.5312 5.5156-1.5312z"/>
  </symbol>
  <symbol id="e" overflow="visible">
   <path d="m12.297-15.547c-1.3867 0-2.4453 0.5-3.1719 1.5-0.71875 0.99219-1.0781 2.4219-1.0781 4.2969s0.35938 3.3125 1.0781 4.3125c0.72656 0.99219 1.7852 1.4844 3.1719 1.4844 1.3633 0 2.4062-0.49219 3.125-1.4844 0.71875-1 1.0781-2.4375 1.0781-4.3125s-0.35938-3.3047-1.0781-4.2969c-0.71875-1-1.7617-1.5-3.125-1.5zm0-4.4531c3.3633 0 5.9883 0.90625 7.875 2.7188 1.8828 1.8125 2.8281 4.3242 2.8281 7.5312 0 3.2109-0.94531 5.7188-2.8281 7.5312-1.8867 1.8125-4.5117 2.7188-7.875 2.7188-3.375 0-6.0156-0.90625-7.9219-2.7188-1.8984-1.8125-2.8438-4.3203-2.8438-7.5312 0-3.207 0.94531-5.7188 2.8438-7.5312 1.9062-1.8125 4.5469-2.7188 7.9219-2.7188z"/>
  </symbol>
  <symbol id="r" overflow="visible">
   <path d="m21.109-16.297c0.78906-1.207 1.7266-2.125 2.8125-2.75 1.082-0.63281 2.2734-0.95312 3.5781-0.95312 2.25 0 3.957 0.69531 5.125 2.0781 1.1758 1.375 1.7656 3.3867 1.7656 6.0312v11.891h-6.2812v-10.188c0.007813-0.14453 0.019531-0.30078 0.03125-0.46875 0.007813-0.16406 0.015625-0.39844 0.015625-0.70312 0-1.375-0.21094-2.375-0.625-3-0.40625-0.625-1.0625-0.9375-1.9688-0.9375-1.1797 0-2.0898 0.49219-2.7344 1.4688-0.64844 0.98047-0.98438 2.3906-1.0156 4.2344v9.5938h-6.2656v-10.188c0-2.1562-0.1875-3.5469-0.5625-4.1719s-1.0391-0.9375-1.9844-0.9375c-1.1992 0-2.125 0.49609-2.7812 1.4844-0.64844 0.98047-0.96875 2.3828-0.96875 4.2031v9.6094h-6.2812v-19.531h6.2812v2.8594c0.75781-1.1016 1.6328-1.9297 2.625-2.4844 1-0.5625 2.0977-0.84375 3.2969-0.84375 1.3516 0 2.5469 0.32812 3.5781 0.98438 1.0312 0.64844 1.8164 1.5547 2.3594 2.7188z"/>
  </symbol>
  <symbol id="q" overflow="visible">
   <path d="m22.641-11.891v11.891h-6.2812v-9.0625c0-1.7188-0.042969-2.8945-0.125-3.5312-0.074219-0.63281-0.19922-1.1016-0.375-1.4062-0.25-0.40625-0.58594-0.72266-1-0.95312-0.41797-0.22656-0.89844-0.34375-1.4375-0.34375-1.3047 0-2.3242 0.50781-3.0625 1.5156-0.74219 1-1.1094 2.3906-1.1094 4.1719v9.6094h-6.25v-27.141h6.25v10.469c0.9375-1.1328 1.9297-1.9727 2.9844-2.5156 1.0625-0.53906 2.2344-0.8125 3.5156-0.8125 2.25 0 3.957 0.69531 5.125 2.0781 1.1758 1.375 1.7656 3.3867 1.7656 6.0312z"/>
  </symbol>
  <symbol id="p" overflow="visible">
   <path d="m3.2812-26.047h7.5l9.4688 17.859v-17.859h6.3594v26.047h-7.5l-9.4688-17.859v17.859h-6.3594z"/>
  </symbol>
  <symbol id="o" overflow="visible">
   <path d="m2.7969-7.6094v-11.922h6.2656v1.9531c0 1.0547-0.007812 2.3828-0.015625 3.9844-0.011719 1.5938-0.015625 2.6641-0.015625 3.2031 0 1.5625 0.039062 2.6953 0.125 3.3906 0.082031 0.6875 0.22266 1.1875 0.42188 1.5 0.25 0.40625 0.58203 0.72656 1 0.95312 0.41406 0.21875 0.89062 0.32812 1.4219 0.32812 1.3008 0 2.3203-0.5 3.0625-1.5 0.75-1 1.125-2.3906 1.125-4.1719v-9.6406h6.2344v19.531h-6.2344v-2.8281c-0.94922 1.1484-1.9492 1.9922-3 2.5312-1.0547 0.53125-2.2109 0.79688-3.4688 0.79688-2.2617 0-3.9805-0.6875-5.1562-2.0625-1.1797-1.3828-1.7656-3.3984-1.7656-6.0469z"/>
  </symbol>
  <symbol id="n" overflow="visible">
   <path d="m3.2812-26.047h11.141c3.3125 0 5.8516 0.74219 7.625 2.2188 1.7812 1.4688 2.6719 3.5625 2.6719 6.2812 0 2.7305-0.89062 4.8359-2.6719 6.3125-1.7734 1.4688-4.3125 2.2031-7.625 2.2031h-4.4219v9.0312h-6.7188zm6.7188 4.875v7.2656h3.7031c1.3008 0 2.3047-0.3125 3.0156-0.9375 0.71875-0.63281 1.0781-1.5352 1.0781-2.7031 0-1.1641-0.35938-2.0625-1.0781-2.6875-0.71094-0.625-1.7148-0.9375-3.0156-0.9375z"/>
  </symbol>
  <symbol id="m" overflow="visible">
   <path d="m3-19.531h6.25v19.188c0 2.6133-0.63281 4.6094-1.8906 5.9844-1.2617 1.375-3.0781 2.0625-5.4531 2.0625h-3.0938v-4.0938h1.0781c1.1875 0 2-0.27344 2.4375-0.8125 0.44531-0.53125 0.67188-1.5781 0.67188-3.1406zm0-7.6094h6.25v5.0938h-6.25z"/>
  </symbol>
  <symbol id="l" overflow="visible">
   <path d="m18.781-18.922v5.0938c-0.84375-0.58203-1.6953-1.0156-2.5469-1.2969-0.85547-0.28125-1.7461-0.42188-2.6719-0.42188-1.7422 0-3.0938 0.51172-4.0625 1.5312-0.96875 1.0234-1.4531 2.4453-1.4531 4.2656 0 1.8242 0.48438 3.2461 1.4531 4.2656 0.96875 1.0234 2.3203 1.5312 4.0625 1.5312 0.97656 0 1.9062-0.14453 2.7812-0.4375 0.88281-0.28906 1.6953-0.72266 2.4375-1.2969v5.1094c-0.98047 0.36719-1.9766 0.63281-2.9844 0.8125-1 0.17578-2.0078 0.26562-3.0156 0.26562-3.5234 0-6.2773-0.89844-8.2656-2.7031-1.9922-1.8125-2.9844-4.3281-2.9844-7.5469s0.99219-5.7266 2.9844-7.5312c1.9883-1.8125 4.7422-2.7188 8.2656-2.7188 1.0195 0 2.0234 0.089844 3.0156 0.26562 1 0.17969 1.9922 0.44922 2.9844 0.8125z"/>
  </symbol>
 </defs>
 <g>
  <path d="m560.43 227.51c-11.125 0.035157-22.203 1.4023-33 4.0742l-39.574-111.43c5.0938-1.8164 10.453-2.7578 15.859-2.7852 10.422 0.011718 20.406 4.207 27.715 11.641 2.6797 2.6836 6.3164 4.1914 10.105 4.1914 3.793 0 7.4297-1.5078 10.109-4.1914 2.6211-2.7188 4.0586-6.3633 4-10.141-0.054687-3.8047-1.625-7.4297-4.3594-10.074-12.613-12.699-29.742-19.891-47.641-20-14.688 0.070312-29.055 4.3047-41.43 12.215-5.3203 3.5859-7.5977 10.273-5.5703 16.359l17.285 48.645-181.07-0.003907-6.6445-19.285h28.574c7.8906 0 14.285-6.3945 14.285-14.285s-6.3945-14.285-14.285-14.285h-79.07c-7.8906 0-14.285 6.3945-14.285 14.285s6.3945 14.285 14.285 14.285h20.215l11.215 32.285-53.789 69.785c-22.078-13.965-47.66-21.395-73.785-21.426-36.18 0.03125-70.938 14.105-96.945 39.258-26.012 25.152-41.242 59.418-42.488 95.578-1.2422 36.16 11.594 71.395 35.812 98.273 24.219 26.883 57.926 43.316 94.02 45.836s71.758-9.0664 99.477-32.32c27.719-23.254 45.332-56.359 49.125-92.34h69.074c1.4062-0.023438 2.8047-0.26562 4.1406-0.71484h0.42969c0.35547 0 0.57031 0 0.85547-0.35547l1.2148-0.57031v-0.003907c0.58984-0.28906 1.1406-0.64844 1.6445-1.0703l0.85547-0.57031c0.8125-0.71484 1.5508-1.5039 2.2148-2.3594l129.5-168.64 12 33.855c-41.523 19.938-70.5 59.125-77.395 104.67-6.8906 45.543 9.1914 91.551 42.957 122.88 33.766 31.332 80.844 43.93 125.75 33.656 44.902-10.277 81.816-42.098 98.594-84.996 16.781-42.898 11.254-91.32-14.762-129.33-26.016-38.016-69.148-60.699-115.21-60.594zm0 250.64c-33.504-0.011719-65.211-15.168-86.258-41.234-21.051-26.066-29.195-60.25-22.152-93.004 7.0391-32.758 28.508-60.578 58.41-75.691l36.785 103.64c1.8984 5.7227 7.1836 9.6406 13.215 9.7852 1.6055 0.015625 3.1992-0.25 4.7148-0.78516 3.5859-1.2617 6.5195-3.9023 8.1562-7.332 1.6367-3.4336 1.8359-7.375 0.55469-10.953l-36.855-104c7.7031-1.6367 15.555-2.4727 23.43-2.5 39 0.98828 74.621 22.363 93.84 56.312s19.219 75.492 0 109.44c-19.219 33.949-54.84 55.328-93.84 56.316zm-420.86 0h-0.003907c-39-0.98828-74.621-22.367-93.84-56.316-19.219-33.949-19.219-75.492 0-109.44s54.84-55.324 93.84-56.312c19.766-0.015625 39.164 5.3164 56.145 15.426l-67.145 86.785c-3.5039 4.2656-4.2383 10.168-1.8867 15.16 2.3516 4.9922 7.3672 8.1836 12.887 8.1992h110c-3.5312 26.684-16.629 51.176-36.863 68.922-20.23 17.75-46.223 27.551-73.137 27.578zm322.5-283.29-109.71 142.5-49.355-142.5zm-212.5 158.21h-80.855l50-63.855v-0.003906c17.02 17.32 27.863 39.762 30.855 63.859zm77.855 0h-48.855c-3.543-33.016-18.738-63.684-42.855-86.5l42.855-54.785z"/>
  <use y="613.867188" xlink:href="#v"/>
  <use x="26.210937" y="613.867188" xlink:href="#b"/>
  <use x="43.824219" y="613.867188" xlink:href="#a"/>
  <use x="68.046875" y="613.867188" xlink:href="#h"/>
  <use x="92.144531" y="613.867188" xlink:href="#d"/>
  <use x="109.21875" y="613.867188" xlink:href="#a"/>
  <use x="133.441406" y="613.867188" xlink:href="#g"/>
  <use x="171.4375" y="613.867188" xlink:href="#f"/>
  <use x="197.003906" y="613.867188" xlink:href="#k"/>
  <use x="232.71875" y="613.867188" xlink:href="#j"/>
  <use x="259.941406" y="613.867188" xlink:href="#a"/>
  <use x="284.164062" y="613.867188" xlink:href="#b"/>
  <use x="301.773438" y="613.867188" xlink:href="#c"/>
  <use x="327.199219" y="613.867188" xlink:href="#g"/>
  <use x="365.199219" y="613.867188" xlink:href="#u"/>
  <use x="387.957031" y="613.867188" xlink:href="#h"/>
  <use x="412.058594" y="613.867188" xlink:href="#i"/>
  <use x="435.808594" y="613.867188" xlink:href="#a"/>
  <use x="460.03125" y="613.867188" xlink:href="#c"/>
  <use x="485.457031" y="613.867188" xlink:href="#f"/>
  <use x="511.019531" y="613.867188" xlink:href="#b"/>
  <use x="528.632812" y="613.867188" xlink:href="#t"/>
  <use x="540.875" y="613.867188" xlink:href="#c"/>
  <use x="566.300781" y="613.867188" xlink:href="#i"/>
  <use y="649.582031" xlink:href="#s"/>
  <use x="15.539062" y="649.582031" xlink:href="#b"/>
  <use x="33.152344" y="649.582031" xlink:href="#e"/>
  <use x="57.6875" y="649.582031" xlink:href="#r"/>
  <use x="107.335938" y="649.582031" xlink:href="#d"/>
  <use x="124.40625" y="649.582031" xlink:href="#q"/>
  <use x="149.832031" y="649.582031" xlink:href="#a"/>
  <use x="186.488281" y="649.582031" xlink:href="#p"/>
  <use x="216.378906" y="649.582031" xlink:href="#e"/>
  <use x="240.914062" y="649.582031" xlink:href="#o"/>
  <use x="266.339844" y="649.582031" xlink:href="#c"/>
  <use x="304.199219" y="649.582031" xlink:href="#n"/>
  <use x="330.375" y="649.582031" xlink:href="#b"/>
  <use x="347.988281" y="649.582031" xlink:href="#e"/>
  <use x="372.523437" y="649.582031" xlink:href="#m"/>
  <use x="384.765625" y="649.582031" xlink:href="#a"/>
  <use x="408.988281" y="649.582031" xlink:href="#l"/>
  <use x="430.160156" y="649.582031" xlink:href="#d"/>
 </g>
</svg>
